<mxfile host="app.diagrams.net" modified="2023-11-06T09:24:19.811Z" agent="Mozilla/5.0 (Windows NT 10.0; Win64; x64) AppleWebKit/537.36 (KHTML, like Gecko) Chrome/119.0.0.0 Safari/537.36" etag="u851zQQ2txnxJaF-jOKi" version="22.0.8" type="github">
  <diagram name="Page-1" id="bdC-seOQ_VLCglBhta-X">
    <mxGraphModel dx="2100" dy="1068" grid="1" gridSize="10" guides="1" tooltips="1" connect="1" arrows="1" fold="1" page="1" pageScale="1" pageWidth="827" pageHeight="1169" math="0" shadow="0">
      <root>
        <mxCell id="0" />
        <mxCell id="1" parent="0" />
        <mxCell id="fMJ7wgTORC52Dzvs_slK-13" value="" style="edgeStyle=orthogonalEdgeStyle;rounded=0;orthogonalLoop=1;jettySize=auto;html=1;" edge="1" parent="1" source="fMJ7wgTORC52Dzvs_slK-1" target="fMJ7wgTORC52Dzvs_slK-3">
          <mxGeometry relative="1" as="geometry" />
        </mxCell>
        <mxCell id="fMJ7wgTORC52Dzvs_slK-1" value="Start" style="rounded=1;whiteSpace=wrap;html=1;fontSize=12;glass=0;strokeWidth=1;shadow=0;" vertex="1" parent="1">
          <mxGeometry x="320" y="80" width="120" height="40" as="geometry" />
        </mxCell>
        <mxCell id="fMJ7wgTORC52Dzvs_slK-14" value="" style="edgeStyle=orthogonalEdgeStyle;rounded=0;orthogonalLoop=1;jettySize=auto;html=1;" edge="1" parent="1" source="fMJ7wgTORC52Dzvs_slK-3" target="fMJ7wgTORC52Dzvs_slK-5">
          <mxGeometry relative="1" as="geometry" />
        </mxCell>
        <mxCell id="fMJ7wgTORC52Dzvs_slK-3" value="Welcome user to the program" style="rounded=0;whiteSpace=wrap;html=1;" vertex="1" parent="1">
          <mxGeometry x="320" y="150" width="120" height="60" as="geometry" />
        </mxCell>
        <mxCell id="fMJ7wgTORC52Dzvs_slK-15" value="" style="edgeStyle=orthogonalEdgeStyle;rounded=0;orthogonalLoop=1;jettySize=auto;html=1;" edge="1" parent="1" source="fMJ7wgTORC52Dzvs_slK-5">
          <mxGeometry relative="1" as="geometry">
            <mxPoint x="380" y="330" as="targetPoint" />
          </mxGeometry>
        </mxCell>
        <mxCell id="fMJ7wgTORC52Dzvs_slK-5" value="Display menu options" style="rounded=0;whiteSpace=wrap;html=1;" vertex="1" parent="1">
          <mxGeometry x="320" y="240" width="120" height="60" as="geometry" />
        </mxCell>
        <mxCell id="fMJ7wgTORC52Dzvs_slK-16" value="" style="edgeStyle=orthogonalEdgeStyle;rounded=0;orthogonalLoop=1;jettySize=auto;html=1;" edge="1" parent="1" source="fMJ7wgTORC52Dzvs_slK-6" target="fMJ7wgTORC52Dzvs_slK-7">
          <mxGeometry relative="1" as="geometry" />
        </mxCell>
        <mxCell id="fMJ7wgTORC52Dzvs_slK-6" value="Input desired&lt;br&gt;option" style="shape=parallelogram;perimeter=parallelogramPerimeter;whiteSpace=wrap;html=1;fixedSize=1;" vertex="1" parent="1">
          <mxGeometry x="320" y="330" width="120" height="60" as="geometry" />
        </mxCell>
        <mxCell id="fMJ7wgTORC52Dzvs_slK-8" style="edgeStyle=orthogonalEdgeStyle;rounded=0;orthogonalLoop=1;jettySize=auto;html=1;entryX=1;entryY=0.5;entryDx=0;entryDy=0;" edge="1" parent="1" source="fMJ7wgTORC52Dzvs_slK-7" target="fMJ7wgTORC52Dzvs_slK-6">
          <mxGeometry relative="1" as="geometry">
            <Array as="points">
              <mxPoint x="480" y="480" />
              <mxPoint x="480" y="360" />
            </Array>
          </mxGeometry>
        </mxCell>
        <mxCell id="fMJ7wgTORC52Dzvs_slK-17" value="" style="edgeStyle=orthogonalEdgeStyle;rounded=0;orthogonalLoop=1;jettySize=auto;html=1;entryX=0.5;entryY=0;entryDx=0;entryDy=0;" edge="1" parent="1" source="fMJ7wgTORC52Dzvs_slK-7" target="fMJ7wgTORC52Dzvs_slK-10">
          <mxGeometry relative="1" as="geometry" />
        </mxCell>
        <mxCell id="fMJ7wgTORC52Dzvs_slK-7" value="Was the input&lt;br&gt;valid?" style="rhombus;whiteSpace=wrap;html=1;" vertex="1" parent="1">
          <mxGeometry x="320" y="410" width="120" height="120" as="geometry" />
        </mxCell>
        <mxCell id="fMJ7wgTORC52Dzvs_slK-9" value="No" style="text;html=1;align=center;verticalAlign=middle;resizable=0;points=[];autosize=1;strokeColor=none;fillColor=none;" vertex="1" parent="1">
          <mxGeometry x="440" y="450" width="40" height="30" as="geometry" />
        </mxCell>
        <mxCell id="fMJ7wgTORC52Dzvs_slK-18" value="" style="edgeStyle=orthogonalEdgeStyle;rounded=0;orthogonalLoop=1;jettySize=auto;html=1;" edge="1" parent="1" source="fMJ7wgTORC52Dzvs_slK-10" target="fMJ7wgTORC52Dzvs_slK-11">
          <mxGeometry relative="1" as="geometry" />
        </mxCell>
        <mxCell id="fMJ7wgTORC52Dzvs_slK-10" value="Run selected option program" style="rounded=0;whiteSpace=wrap;html=1;" vertex="1" parent="1">
          <mxGeometry x="320" y="554.5" width="120" height="60" as="geometry" />
        </mxCell>
        <mxCell id="fMJ7wgTORC52Dzvs_slK-21" value="" style="edgeStyle=orthogonalEdgeStyle;rounded=0;orthogonalLoop=1;jettySize=auto;html=1;" edge="1" parent="1" source="fMJ7wgTORC52Dzvs_slK-11" target="fMJ7wgTORC52Dzvs_slK-20">
          <mxGeometry relative="1" as="geometry" />
        </mxCell>
        <mxCell id="fMJ7wgTORC52Dzvs_slK-11" value="Return user to menu when other program has completed." style="rounded=0;whiteSpace=wrap;html=1;" vertex="1" parent="1">
          <mxGeometry x="320" y="640" width="120" height="60" as="geometry" />
        </mxCell>
        <mxCell id="fMJ7wgTORC52Dzvs_slK-19" value="yes" style="text;html=1;align=center;verticalAlign=middle;resizable=0;points=[];autosize=1;strokeColor=none;fillColor=none;" vertex="1" parent="1">
          <mxGeometry x="380" y="524.5" width="40" height="30" as="geometry" />
        </mxCell>
        <mxCell id="fMJ7wgTORC52Dzvs_slK-33" value="" style="edgeStyle=orthogonalEdgeStyle;rounded=0;orthogonalLoop=1;jettySize=auto;html=1;" edge="1" parent="1" source="fMJ7wgTORC52Dzvs_slK-20" target="fMJ7wgTORC52Dzvs_slK-25">
          <mxGeometry relative="1" as="geometry" />
        </mxCell>
        <mxCell id="fMJ7wgTORC52Dzvs_slK-20" value="Did user return&lt;br&gt;after checkout?" style="rhombus;whiteSpace=wrap;html=1;" vertex="1" parent="1">
          <mxGeometry x="320" y="730" width="120" height="120" as="geometry" />
        </mxCell>
        <mxCell id="fMJ7wgTORC52Dzvs_slK-23" value="No" style="text;html=1;align=center;verticalAlign=middle;resizable=0;points=[];autosize=1;strokeColor=none;fillColor=none;" vertex="1" parent="1">
          <mxGeometry x="440" y="760" width="40" height="30" as="geometry" />
        </mxCell>
        <mxCell id="fMJ7wgTORC52Dzvs_slK-40" value="" style="edgeStyle=orthogonalEdgeStyle;rounded=0;orthogonalLoop=1;jettySize=auto;html=1;" edge="1" parent="1" source="fMJ7wgTORC52Dzvs_slK-25" target="fMJ7wgTORC52Dzvs_slK-38">
          <mxGeometry relative="1" as="geometry" />
        </mxCell>
        <mxCell id="fMJ7wgTORC52Dzvs_slK-25" value="Thank user for staying" style="rounded=0;whiteSpace=wrap;html=1;" vertex="1" parent="1">
          <mxGeometry x="320" y="880" width="120" height="60" as="geometry" />
        </mxCell>
        <mxCell id="fMJ7wgTORC52Dzvs_slK-30" style="edgeStyle=orthogonalEdgeStyle;rounded=0;orthogonalLoop=1;jettySize=auto;html=1;entryX=1;entryY=0.5;entryDx=0;entryDy=0;" edge="1" parent="1" source="fMJ7wgTORC52Dzvs_slK-27" target="fMJ7wgTORC52Dzvs_slK-6">
          <mxGeometry relative="1" as="geometry">
            <Array as="points">
              <mxPoint x="580" y="360" />
            </Array>
          </mxGeometry>
        </mxCell>
        <mxCell id="fMJ7wgTORC52Dzvs_slK-27" value="Return to menu?" style="rhombus;whiteSpace=wrap;html=1;" vertex="1" parent="1">
          <mxGeometry x="520" y="730" width="120" height="120" as="geometry" />
        </mxCell>
        <mxCell id="fMJ7wgTORC52Dzvs_slK-29" value="" style="endArrow=classic;html=1;rounded=0;exitX=1;exitY=0.5;exitDx=0;exitDy=0;entryX=0;entryY=0.5;entryDx=0;entryDy=0;" edge="1" parent="1" source="fMJ7wgTORC52Dzvs_slK-20" target="fMJ7wgTORC52Dzvs_slK-27">
          <mxGeometry width="50" height="50" relative="1" as="geometry">
            <mxPoint x="400" y="780" as="sourcePoint" />
            <mxPoint x="450" y="730" as="targetPoint" />
          </mxGeometry>
        </mxCell>
        <mxCell id="fMJ7wgTORC52Dzvs_slK-31" value="No" style="text;html=1;align=center;verticalAlign=middle;resizable=0;points=[];autosize=1;strokeColor=none;fillColor=none;" vertex="1" parent="1">
          <mxGeometry x="580" y="850" width="40" height="30" as="geometry" />
        </mxCell>
        <mxCell id="fMJ7wgTORC52Dzvs_slK-32" value="Yes" style="text;html=1;align=center;verticalAlign=middle;resizable=0;points=[];autosize=1;strokeColor=none;fillColor=none;" vertex="1" parent="1">
          <mxGeometry x="580" y="700" width="40" height="30" as="geometry" />
        </mxCell>
        <mxCell id="fMJ7wgTORC52Dzvs_slK-34" value="End" style="rounded=1;whiteSpace=wrap;html=1;fontSize=12;glass=0;strokeWidth=1;shadow=0;" vertex="1" parent="1">
          <mxGeometry x="320" y="1060" width="120" height="40" as="geometry" />
        </mxCell>
        <mxCell id="fMJ7wgTORC52Dzvs_slK-36" value="" style="endArrow=classic;html=1;rounded=0;exitX=0.5;exitY=1;exitDx=0;exitDy=0;" edge="1" parent="1" source="fMJ7wgTORC52Dzvs_slK-27" target="fMJ7wgTORC52Dzvs_slK-38">
          <mxGeometry width="50" height="50" relative="1" as="geometry">
            <mxPoint x="360" y="1000" as="sourcePoint" />
            <mxPoint x="440" y="990" as="targetPoint" />
            <Array as="points">
              <mxPoint x="580" y="1000" />
              <mxPoint x="510" y="1000" />
            </Array>
          </mxGeometry>
        </mxCell>
        <mxCell id="fMJ7wgTORC52Dzvs_slK-39" value="" style="edgeStyle=orthogonalEdgeStyle;rounded=0;orthogonalLoop=1;jettySize=auto;html=1;" edge="1" parent="1" source="fMJ7wgTORC52Dzvs_slK-38" target="fMJ7wgTORC52Dzvs_slK-34">
          <mxGeometry relative="1" as="geometry" />
        </mxCell>
        <mxCell id="fMJ7wgTORC52Dzvs_slK-38" value="Exit system" style="shape=parallelogram;perimeter=parallelogramPerimeter;whiteSpace=wrap;html=1;fixedSize=1;" vertex="1" parent="1">
          <mxGeometry x="320" y="970" width="120" height="60" as="geometry" />
        </mxCell>
      </root>
    </mxGraphModel>
  </diagram>
</mxfile>
